<svg width="267" height="267" viewBox="0 0 267 267" fill="none" xmlns="http://www.w3.org/2000/svg">
<g clip-path="url(#clip0_2564_164)">
<path d="M133.49 266.981C207.215 266.981 266.981 207.215 266.981 133.49C266.981 59.7657 207.215 0 133.49 0C59.7657 0 0 59.7657 0 133.49C0 207.215 59.7657 266.981 133.49 266.981Z" fill="#FDB10B" stroke="black"/>
<path d="M133.49 250.23C197.964 250.23 250.23 197.964 250.23 133.49C250.23 69.0168 197.964 16.7505 133.49 16.7505C69.0168 16.7505 16.7505 69.0168 16.7505 133.49C16.7505 197.964 69.0168 250.23 133.49 250.23Z" fill="#FEF4C0" stroke="black"/>
<path d="M236.085 132.444C236.085 159.618 223.898 181.647 208.866 181.647C175.366 181.647 181.647 159.618 181.647 132.444C181.647 105.269 176.412 83.2405 208.866 83.2405C223.898 83.2405 236.085 105.269 236.085 132.444Z" fill="#A80000"/>
<path d="M225.615 132.444C225.615 152.68 218.116 169.085 208.866 169.085C187.928 169.085 192.115 152.68 192.115 132.444C192.115 112.207 185.834 95.803 208.866 95.803C218.116 95.803 225.615 112.207 225.615 132.444Z" fill="#FEF4C0"/>
<path d="M180.378 93.2884C180.378 80.3746 194.33 80.3746 194.33 93.2884C194.33 106.202 194.33 164.315 194.33 174C194.33 183.686 180.378 183.686 180.378 174C180.378 164.315 180.378 106.202 180.378 93.2884Z" fill="#FD292F"/>
<path d="M89.4552 174.603C93.6093 166.148 121.026 106.963 126.842 93.4344C132.658 79.9066 144.29 80.752 139.305 93.4344C134.32 106.117 107.797 165.302 103.579 174.603C99.3613 183.903 85.3011 183.057 89.4552 174.603Z" fill="#FD292F"/>
<path d="M125.331 174.603C129.485 166.148 156.902 106.963 162.718 93.4344C168.533 79.9066 180.165 80.752 175.18 93.4344C170.195 106.117 143.672 165.302 139.455 174.603C135.237 183.903 121.177 183.057 125.331 174.603Z" fill="#FD292F"/>
<path d="M129.572 88.2725C130.064 81.0887 143.983 82.0417 143.491 89.2255C143 96.4092 136.062 166.305 135.448 175.284C134.833 184.264 123.055 183.458 123.67 174.478L129.572 88.2725Z" fill="#A80000"/>
<path d="M164.806 88.2758C165.296 81.1059 179.216 82.0589 178.724 89.2288C178.233 96.3986 171.306 166.158 170.693 175.121C170.079 184.083 158.301 183.276 158.915 174.314L164.806 88.2758Z" fill="#A80000"/>
<path d="M31.1633 176.755C33.149 172.423 67.9058 96.1745 72.2568 88.5003C76.6078 80.826 86.7603 83.2241 84.3431 88.5003C81.9259 93.7763 46.7214 169.266 42.7661 176.755C38.8107 184.244 29.1774 181.086 31.1633 176.755Z" fill="#FD292F"/>
<path d="M86.7032 88.3438V177.472C86.7032 182.528 74.7447 182.528 74.7447 177.472C74.7447 172.415 75.4482 94.6649 75.4481 88.3438C75.4481 82.0226 86.7032 82.0226 86.7032 88.3438Z" fill="#A80000"/>
<path d="M53.1294 133.49H82.274C86.3543 133.49 86.3543 143.959 82.274 143.959H53.1294C48.7577 143.959 48.4663 133.49 53.1294 133.49Z" fill="#A80000"/>
<path d="M119.949 44.1969C119.745 44.4618 119.358 44.951 119.174 45.2363C118.217 46.826 116.28 49.4142 114.263 50.8409L112.143 49.1493C113.794 48.1507 115.384 46.3572 115.914 45.3586C114.67 45.3586 106.559 45.3586 105.275 45.3586C104.439 45.3586 103.747 45.3993 102.789 45.5012V42.648C103.584 42.7703 104.439 42.8722 105.275 42.8722C106.559 42.8722 115.2 42.8722 116.26 42.8722C116.831 42.8722 117.952 42.7907 118.339 42.6888L119.949 44.1969ZM111.654 46.9279C111.654 51.9822 111.532 56.1397 105.988 59.1356L103.604 57.1995C104.276 56.9753 105.01 56.6288 105.764 56.0582C108.332 54.2647 108.821 52.1248 108.821 48.7825C108.821 48.1303 108.801 47.6004 108.699 46.9279H111.654ZM125.155 44.1358C125.909 44.2173 126.847 44.258 127.56 44.258C129.272 44.258 134.876 44.258 135.997 44.258C136.812 44.258 137.668 44.2173 138.259 44.1358V47.0909C137.668 47.0705 136.711 47.0298 135.997 47.0298C134.917 47.0298 128.701 47.0298 127.56 47.0298C126.785 47.0298 125.848 47.0705 125.155 47.0909V44.1358ZM123.443 54.1221C124.238 54.1628 125.196 54.2444 126.011 54.2444C127.295 54.2444 136.425 54.2444 137.709 54.2444C138.382 54.2444 139.258 54.1832 139.951 54.1221V57.2402C139.217 57.1587 138.3 57.0976 137.709 57.0976C136.425 57.0976 127.295 57.0976 126.011 57.0976C125.196 57.0976 124.217 57.1587 123.443 57.2402V54.1221ZM160.494 42.9945C160.209 43.4632 159.822 44.3599 159.638 44.8491C158.864 46.8667 157.621 49.5569 155.929 51.758C154.034 54.2036 151.527 56.8326 147.573 59.0133L145.311 56.9345C149.02 55.1615 151.568 52.8993 153.728 50.0868C155.338 47.9672 156.255 45.8681 156.969 43.8301C157.152 43.3002 157.356 42.4646 157.458 41.9551L160.494 42.9945ZM149.285 44.9714C151.303 46.2349 154.095 48.171 155.807 49.5161C157.988 51.2077 160.127 53.1234 161.778 54.8761L159.679 57.2199C157.906 55.1411 156.113 53.4699 153.952 51.6764C152.485 50.4536 150.1 48.6194 147.532 47.0501L149.285 44.9714Z" fill="#A80000"/>
<path d="M125.588 210.382C125.303 210.708 125.058 210.993 124.895 211.238C123.306 213.867 120.289 217.535 117.13 219.859L115.092 217.984C117.783 216.109 120.065 213.337 121.125 211.462C119.331 211.462 111.913 211.462 110.364 211.462C109.529 211.462 108.428 211.564 108 211.625V208.751C108.55 208.853 109.651 208.955 110.364 208.955C111.648 208.955 119.474 208.955 121.655 208.955C122.45 208.955 123.122 208.874 123.57 208.731L125.588 210.382ZM114.848 220.164C113.645 218.962 111.567 217.107 110.364 216.251L112.504 214.499C113.605 215.334 115.643 216.985 117.191 218.473C118.537 219.777 120.147 221.469 121.125 222.651L118.72 224.566C117.884 223.425 116.172 221.509 114.848 220.164ZM132.701 207.732C134.107 208.69 136.757 210.81 137.959 212.053L135.88 214.172C134.82 213.031 132.252 210.81 130.765 209.791L132.701 207.732ZM130.133 221.306C133.333 220.857 135.962 219.818 137.939 218.656C141.424 216.577 144.073 213.48 145.377 210.728L146.947 213.581C145.418 216.353 142.708 219.166 139.426 221.143C137.348 222.386 134.718 223.507 131.865 223.996L130.133 221.306ZM165.044 206.917C165.554 207.671 166.287 208.955 166.675 209.709L165.044 210.402C164.616 209.567 163.984 208.364 163.434 207.569L165.044 206.917ZM167.469 206C167.999 206.754 168.753 208.058 169.1 208.772L167.49 209.465C167.062 208.609 166.41 207.427 165.859 206.652L167.469 206ZM159.827 207.101C159.766 207.569 159.705 208.425 159.684 208.914C159.46 217.026 157.544 221.143 153.04 224.363L150.656 222.447C151.512 221.978 152.531 221.285 153.346 220.45C156.016 217.8 156.953 214.336 156.974 208.976C156.974 208.507 156.892 207.59 156.811 207.101H159.827ZM166.736 211.462C166.675 211.788 166.614 212.318 166.614 212.542C166.532 214.743 166.267 220.429 165.391 222.508C164.963 223.547 164.168 224.077 162.782 224.077C161.6 224.077 160.398 223.996 159.399 223.914L159.073 221.183C160.092 221.367 161.131 221.469 161.946 221.469C162.599 221.469 162.884 221.244 163.088 220.755C163.679 219.471 163.964 215.395 163.964 213.194H154.019C153.326 213.194 152.184 213.194 151.328 213.276V210.606C152.184 210.687 153.224 210.749 153.998 210.749H163.434C163.964 210.749 164.494 210.687 164.983 210.606L166.736 211.462Z" fill="#A80000"/>
</g>
<defs>
<clipPath id="clip0_2564_164">
<rect width="266.981" height="266.981" fill="white"/>
</clipPath>
</defs>
</svg>
